<svg width="340" height="234" xmlns="http://www.w3.org/2000/svg" xmlns:xlink="http://www.w3.org/1999/xlink" xml:space="preserve" overflow="hidden"><defs><clipPath id="clip0"><rect x="53" y="253" width="340" height="234"/></clipPath></defs><g clip-path="url(#clip0)" transform="translate(-53 -253)"><path d="M153.85 196.826C150.279 194.752 146.267 193.255 142.188 192.474 139.06 191.897 135.524 191.59 132.498 192.712 129.881 193.664 128.521 195.976 127.331 198.39 126.345 200.43 126.277 202.232 127.398 204.273 130.697 210.188 138.584 213.623 144.807 215.187 148.41 216.104 152.558 216.683 156.162 215.526 158.883 214.642 160.446 212.33 161.636 209.849 161.296 210.495 160.922 211.107 160.514 211.685 160.446 211.787 159.426 213.249 159.766 212.297 159.969 211.752 160.004 211.175 159.936 210.597 159.596 210.767 159.257 210.902 158.916 211.038 157.726 211.447 156.433 211.616 155.142 211.685 152.592 211.787 150.042 211.447 147.559 210.835 147.083 210.733 146.642 210.597 146.165 210.461 143.07 209.576 139.841 208.285 136.951 206.516 134.74 205.156 132.701 203.524 131.102 201.552 130.014 200.226 129.437 199.002 129.199 197.473 128.825 197.643 128.45 198.05 128.111 198.186 128.009 198.221 127.907 198.357 127.805 198.459 127.941 198.221 128.179 197.812 128.519 197.235 128.927 196.521 129.131 196.112 129.233 195.943 129.165 196.079 129.097 196.317 129.097 196.488 129.131 196.827 129.164 197.167 129.199 197.474 130.354 196.896 131.681 196.658 132.938 196.522 135.488 196.284 138.106 196.522 140.69 197.066 142.254 195.911 144.43 195.672 146.3 196.046 149.395 196.658 152.454 199.038 152.726 202.132 154.63 203.356 156.432 204.818 157.894 206.586 158.778 207.674 159.73 209.136 159.899 210.598 160.07 210.53 160.205 210.427 160.375 210.325 160.647 210.155 160.817 209.986 160.953 209.85 161.191 209.475 161.429 209.101 161.701 208.796 162.211 208.184 162.381 208.184 162.007 208.966 161.87 209.239 161.734 209.544 161.598 209.816 161.802 209.408 162.007 209.001 162.143 208.592 164.015 203.49 157.589 199.002 153.849 196.826ZM127.805 198.458C127.432 199.138 127.602 198.798 127.805 198.458ZM129.267 195.908C129.267 195.874 129.302 195.841 129.302 195.841 129.302 195.84 129.267 195.874 129.267 195.908Z" fill="#DB3E1B" transform="matrix(1 0 0 1.00087 53 199.472)"/><path d="M282.098 161.534C279.956 160.922 277.27 161.364 275.06 161.364L187 161.364C184.892 161.364 182.784 161.431 180.676 161.227 174.93 160.683 169.321 158.983 164.05 156.672 160.276 155.006 156.333 153.17 153.204 150.45 145.452 143.65 137.733 136.85 129.981 130.05 119.373 120.734 108.731 111.384 98.1234 102.067 94.8594 99.2117 91.5957 96.3551 88.3317 93.4654 86.4281 91.7997 83.8437 89.8949 81.328 91.6636 79.3557 93.0581 78.064 95.981 76.9763 97.9876 76.092 99.5858 75.2088 101.286 74.9365 103.122 74.5624 105.57 75.0383 108.154 75.5143 110.534 76.8745 117.163 79.3903 123.589 81.9403 129.812 83.6059 133.891 85.2728 138.074 87.3457 141.984 88.1957 143.616 89.2836 145.146 90.2011 146.744 92.0373 149.94 93.7717 153.239 95.3011 156.604 97.0686 160.446 98.6668 164.425 99.6186 168.572 100.06 170.408 100.367 172.312 100.401 174.216 100.401 174.692 100.401 175.203 100.334 175.678 99.2799 176.596 98.1919 177.48 97.0352 178.296 93.8732 180.608 90.575 182.717 87.2092 184.688 79.899 189.039 72.3175 192.915 64.7352 196.758 61.7435 198.255 58.7852 199.75 55.7935 201.281 54.0592 202.165 51.9175 203.015 50.5575 204.477 48.9594 206.211 41.0715 217.397 48.075 217.669 49.0269 217.703 49.9787 217.634 50.9305 217.634 56.3028 217.567 61.6408 217.464 67.013 217.396 80.613 217.193 94.213 216.988 107.779 216.784 109.547 216.75 111.315 216.717 113.083 216.717 115.021 216.682 116.891 216.989 117.162 219.369 117.707 223.789 119.95 228.31 124.302 230.045 128.416 231.71 133.244 231.541 137.562 231.167 139.534 230.996 141.507 230.758 143.445 230.453 145.179 230.181 147.15 229.399 148.748 230.419 149.598 230.963 150.381 231.643 151.197 232.255 156.093 235.927 161.023 239.599 165.919 243.271 171.461 247.419 177.036 251.567 182.579 255.748 185.062 257.584 190.705 263.262 193.833 260.509 195.533 259.012 196.757 256.531 197.811 254.593 198.626 253.096 199.783 251.295 199.647 249.56 199.511 248.031 198.864 246.398 198.525 244.902 198.116 243.236 197.742 241.569 197.369 239.904 196.179 234.498 195.227 229.024 194.752 223.481 194.31 218.314 194.31 212.635 195.465 207.74 195.636 207.638 195.805 207.536 195.976 207.434 196.043 207.4 196.281 207.298 196.35 207.264 197.267 206.89 198.253 206.617 199.172 206.278 211.31 201.552 223.448 196.86 235.586 192.167 248.269 187.238 261.12 182.647 273.734 177.479 275.638 176.697 277.679 175.847 279.174 174.352 280.465 173.026 281.451 171.36 282.336 169.762 283.186 168.3 284.138 166.736 284.613 165.07 285.227 163.165 283.663 162.146 282.099 161.534ZM193.732 209.372C193.732 209.338 193.766 209.304 193.834 209.27 193.8 209.303 193.765 209.372 193.732 209.372ZM260.168 175.78C246.635 180.982 233.104 186.252 219.572 191.488 213.793 193.733 208.012 196.316 202.096 198.221 200.464 198.731 199.241 199.683 198.118 200.975 195.942 203.49 194.208 206.585 192.746 209.542 191.658 211.752 190.774 214.03 190.23 216.409 188.803 222.632 189.244 229.227 189.992 235.483 190.604 240.583 191.556 245.649 192.713 250.682 190.027 248.811 187.477 246.737 184.859 244.766 179.692 240.89 174.523 237.014 169.355 233.171 165.038 229.942 160.685 226.677 156.367 223.447 155.585 222.835 154.769 222.189 153.954 221.646 152.662 220.83 151.471 221.17 150.078 221.442 148.445 221.747 146.779 221.986 145.114 222.19 141.067 222.666 136.886 222.904 132.84 222.224 128.488 221.476 125.291 219.164 123.388 215.05 122.979 214.2 122.674 213.283 122.503 212.33 122.333 211.378 122.469 210.29 121.993 209.406 121.449 208.385 120.429 207.978 119.341 207.944 118.39 207.91 117.403 207.978 116.417 207.978 105.095 208.149 93.7729 208.318 82.4174 208.488 72.8294 208.625 63.2414 208.862 53.6534 208.93L53.245 208.93C56.1005 207.468 58.957 206.04 61.8125 204.613 70.007 200.464 78.1662 196.214 85.9522 191.352 89.2162 189.313 92.4799 187.137 95.4382 184.62 99.2465 181.321 102.068 177.004 104.142 172.414 107.644 164.697 103.971 155.72 100.742 148.513 99.1094 144.875 97.2402 141.304 95.2336 137.837 94.3161 136.238 93.2282 134.675 92.3782 133.009 90.0661 128.453 88.0939 123.659 86.1902 118.899 83.8106 112.914 81.2939 106.625 80.3076 100.199 80.8522 100.402 81.3281 100.674 81.7022 100.981 89.3522 107.305 96.6624 114.105 104.142 120.667 115.497 130.629 126.82 140.591 138.176 150.553 141.44 153.408 144.704 156.299 147.968 159.155 151.469 162.249 155.957 164.289 160.242 166.056 166.09 168.47 172.38 170.136 178.738 170.239 179.996 170.239 181.288 170.205 182.58 170.205L274.38 170.205 274.89 170.205C269.926 172.005 265.064 173.91 260.168 175.78Z" fill="#DB3E1B" transform="matrix(1 0 0 1.00087 53 199.472)"/><path d="M129.234 195.942C129.166 196.078 129.098 196.316 129.098 196.487 129.132 196.826 129.165 197.166 129.2 197.473 128.826 197.643 128.452 198.05 128.112 198.187 128.01 198.221 127.908 198.357 127.806 198.459 127.942 198.221 128.18 197.812 128.52 197.235 128.962 196.521 129.165 196.147 129.234 195.942Z" fill="#DB3E1B" transform="matrix(1 0 0 1.00087 53 199.472)"/><path d="M162.044 208.998C161.908 209.27 161.772 209.576 161.636 209.848 161.296 210.494 160.922 211.106 160.513 211.684 160.446 211.786 159.425 213.248 159.765 212.296 159.969 211.752 160.003 211.174 159.936 210.596 160.106 210.529 160.241 210.426 160.412 210.324 160.684 210.153 160.853 209.984 160.989 209.848 161.227 209.474 161.465 209.1 161.737 208.794 162.248 208.182 162.417 208.215 162.044 208.998Z" fill="#DB3E1B" transform="matrix(1 0 0 1.00087 53 199.472)"/><path d="M152.762 202.13C152.49 199.035 149.429 196.656 146.336 196.044 144.466 195.67 142.29 195.874 140.726 197.064 140.624 197.132 140.555 197.201 140.488 197.268 138.924 198.594 137.734 200.872 136.986 202.742 136.476 204.102 136.51 205.394 136.952 206.516 139.841 208.284 143.072 209.576 146.166 210.461 146.607 210.597 147.083 210.733 147.56 210.835 147.934 210.664 148.274 210.495 148.581 210.257 150.043 209.203 151.063 207.402 151.845 205.735 152.083 205.293 152.321 204.817 152.457 204.34 152.762 203.592 152.83 202.845 152.762 202.13ZM149.872 206.516C149.158 206.788 148.41 206.958 147.662 206.958 146.166 207.025 144.704 206.685 143.378 206.006 142.086 205.394 140.93 204.442 140.114 203.252 139.774 202.742 139.467 202.164 139.298 201.552 139.264 201.348 139.196 201.144 139.196 200.94 139.332 200.873 139.434 200.804 139.57 200.736 140.284 200.464 141.032 200.328 141.781 200.295 143.344 200.227 144.943 200.635 146.303 201.348 148.105 202.3 150.008 204.171 150.247 206.312 150.145 206.38 150.008 206.449 149.872 206.516Z" fill="#DB3E1B" transform="matrix(1 0 0 1.00087 53 199.472)"/><path d="M43.86 86.632C43.8257 86.6663 43.7925 86.7681 43.7239 86.9043 43.3498 87.3791 42.9414 87.855 43.86 86.632Z" fill="#DB3E1B" transform="matrix(1 0 0 1.00087 53 199.472)"/><path d="M70.924 152.218C70.8565 152.252 70.7879 152.252 70.7204 152.252 70.7879 152.287 70.8554 152.252 70.924 152.218Z" fill="#DB3E1B" transform="matrix(1 0 0 1.00087 53 199.472)"/><path d="M72.42 150.45C71.9441 151.266 71.3995 152.014 70.9923 152.218 71.332 151.98 71.8411 151.334 72.42 150.45Z" fill="#DB3E1B" transform="matrix(1 0 0 1.00087 53 199.472)"/><path d="M72.454 150.382C73.0661 149.396 73.5763 148.377 73.7456 148.104 73.916 147.799 76.0233 143.82 75.8872 143.446 76.0588 143.853 74.0522 147.9 72.4541 150.382Z" fill="#DB3E1B" transform="matrix(1 0 0 1.00087 53 199.472)"/><path d="M153.748 109.752C150.45 94.4863 143.922 80.036 131.308 70.278 119.034 60.792 103.088 58.004 87.9243 59.364 79.7983 60.0779 71.4003 61.6761 64.0226 65.2466 56.5086 68.9188 50.4226 74.7671 45.7986 81.6689 38.3523 92.7863 32.8448 105.945 35.8708 119.511 37.8431 128.419 43.1469 136.001 50.2191 141.678 56.1348 146.439 63.3431 150.451 70.7551 152.287 70.8226 152.287 70.857 152.287 70.9588 152.252 70.9931 152.252 70.9931 152.252 71.0263 152.218 71.3661 152.014 71.8763 151.334 72.454 150.45L72.4883 150.416C73.1004 149.43 73.6106 148.411 73.7799 148.138 73.9504 147.833 76.0577 143.854 75.9216 143.48L75.8872 143.446C67.5578 139.366 59.5667 133.28 53.9232 125.868 50.8972 121.89 48.6195 117.436 47.463 112.574 46.4425 108.289 46.5786 104.039 47.1575 99.7218L47.1575 99.6875C47.3611 98.8718 47.4973 98.055 47.6677 97.2393 47.702 97.0014 47.702 97.0014 47.702 97.0357L47.702 96.9681C47.7695 96.6959 47.8725 96.3904 47.94 96.1181 48.3141 94.8941 48.7225 93.67 49.2316 92.4801 49.2659 92.3783 49.2991 92.3097 49.3334 92.2079 50.0816 91.2904 50.7612 90.3374 51.5436 89.4542 58.6491 81.6005 68.4419 78.4042 78.5731 76.7385 89.1814 75.0042 100.265 74.9024 110.601 78.133 118.999 80.7506 126.479 85.545 132.531 91.9036 139.841 99.621 144.532 108.938 148.681 118.593 148.748 118.764 149.598 117.641 149.734 117.471L149.734 117.437C150.414 116.485 151.06 115.431 151.638 114.411 152.25 113.39 152.828 112.302 153.304 111.214 153.51 110.806 153.85 110.228 153.748 109.752ZM68.714 71.876C64.0223 73.9158 59.7723 77.0103 56.2363 80.7157 51.3743 85.8831 47.4983 92.3777 44.7446 98.8711 43.9964 100.605 43.3843 102.373 42.8409 104.209 42.8066 104.277 42.8066 104.345 42.7734 104.38L42.7734 104.414C42.7734 104.448 42.7391 104.481 42.7391 104.516 42.6373 104.855 42.5686 105.162 42.4668 105.502 42.3307 106.148 42.1946 106.793 42.0584 107.406L42.0584 107.44C42.0241 107.61 41.9566 107.814 41.9566 107.984L41.9566 108.052 41.9566 108.154C41.753 109.683 41.6168 111.214 41.5482 112.709 40.3241 108.255 39.9843 103.597 40.4259 98.9386 40.5964 97.1024 40.9705 95.3349 41.3778 93.5331 41.6157 92.4452 41.9555 91.4247 42.2953 90.3711 42.5676 89.5211 42.9074 88.6711 43.2471 87.8555L43.2471 87.8898C43.2814 87.8223 43.5869 87.1759 43.7574 86.8018 43.3833 87.2777 42.9749 87.788 43.8935 86.5296 43.8592 86.5639 43.826 86.6657 43.7574 86.8018 43.8935 86.6314 44.0296 86.462 44.0971 86.3602 44.5055 85.7825 44.9471 85.238 45.3887 84.6945 46.7146 83.0964 48.211 81.6342 49.7747 80.2408 52.6987 77.6908 55.9284 75.4805 59.397 73.7805 66.0264 70.5511 73.5747 69.0545 80.885 68.2722 76.7036 69.1554 72.5556 70.2102 68.7139 71.876Z" fill="#DB3E1B" transform="matrix(1 0 0 1.00087 53 199.472)"/><path d="M326.768 155.346C325.374 148.172 320.41 141.338 314.053 137.734 303.615 131.784 291.477 130.118 279.781 132.463 270.091 134.436 260.163 139.093 252.886 145.86 252.648 145.962 252.376 146.301 252.138 146.675 251.05 148.001 250.234 149.667 249.452 151.129 248.976 152.013 248.398 152.931 248.126 153.883L248.126 153.95 248.126 153.985C248.058 154.188 247.922 154.461 248.024 154.562 248.024 154.664 248.092 154.664 248.228 154.528 259.107 149.19 271.722 145.824 283.894 146.742 292.054 147.354 299.397 150.142 306.402 154.256 306.368 154.222 306.334 154.189 306.3 154.154 306.402 154.222 306.471 154.256 306.572 154.325 306.538 154.29 306.471 154.257 306.436 154.223 309.938 157.147 312.931 161.227 313.916 165.749 314.426 168.027 314.221 170.237 313.61 172.481 312.896 173.23 312.081 173.909 311.298 174.521 309.462 175.949 307.422 177.139 305.348 178.227 303.207 179.382 301.404 180.097 299.296 180.913 291.817 183.802 283.962 185.299 276.176 187.033 275.767 187.135 275.292 187.883 275.122 188.156 274.408 189.142 273.796 190.161 273.184 191.216 272.981 191.556 270.907 195.874 271.076 195.874 283.554 196.724 297.324 196.01 308.51 189.686 312.114 187.646 314.97 185.131 317.384 182.036 317.656 181.798 318.098 181.152 318.166 181.05 321.022 176.971 323.402 173.128 325.34 168.402 327.006 164.22 327.618 159.8 326.768 155.346ZM313.304 175.303C313.27 175.371 313.237 175.44 313.203 175.507 313.203 175.507 313.168 175.541 313.168 175.575 313.168 175.575 313.168 175.54 313.203 175.507 313.203 175.405 313.27 175.338 313.304 175.303ZM320.546 175.61C320.342 175.984 320.172 176.188 320.342 175.882 320.444 175.746 320.546 175.577 320.615 175.474 320.58 175.508 320.546 175.576 320.546 175.61ZM321.941 169.626C321.804 171.428 321.396 173.093 320.818 174.76 320.648 175.032 320.513 175.27 320.342 175.508L320.275 175.576C319.765 176.017 319.289 176.596 318.779 177.072 318.337 177.446 317.929 177.82 317.487 178.194 315.651 179.656 313.577 180.88 311.435 181.934 309.259 183.022 306.982 183.838 304.67 184.552 307.287 182.817 309.396 180.71 311.197 178.329 312.218 177.683 313.237 175.44 313.782 174.453 314.428 173.298 315.176 172.107 315.992 170.612 316.638 169.387 317.25 168.129 317.794 166.872 318.814 164.458 319.494 161.806 319.29 159.188 319.222 158.439 319.12 157.725 318.95 157.012 321.124 160.82 322.315 165.205 321.941 169.626Z" fill="#DB3E1B" transform="matrix(1 0 0 1.00087 53 199.472)"/><path d="M306.538 154.326C306.504 154.292 306.437 154.258 306.402 154.224 306.368 154.19 306.335 154.157 306.3 154.122 306.368 154.224 306.47 154.292 306.538 154.326Z" fill="#DB3E1B" transform="matrix(1 0 0 1.00087 53 199.472)"/><path d="M313.197 175.474C313.197 175.474 313.162 175.508 313.162 175.542 313.162 175.508 313.162 175.508 313.197 175.474Z" fill="#DB3E1B" transform="matrix(1 0 0 1.00087 53 199.472)"/><path d="M216.036 239.904C215.356 239.632 210.257 247.962 210.936 248.744 212.568 250.614 214.234 252.449 215.594 254.558 216.479 255.918 217.329 257.447 217.668 259.08L217.668 259.148C212.977 262.344 207.196 263.772 201.586 264.18L201.551 264.18 201.586 264.18C201.348 264.044 200.43 264.214 200.158 264.214 198.832 264.249 197.472 264.316 196.146 264.316 192.441 264.351 188.667 264.078 184.994 263.432 177.072 262.072 168.505 258.128 165.444 250.104 165.41 250.07 165.377 250.07 165.308 250.104 165.036 250.308 164.356 251.226 164.356 251.226 164.017 251.702 163.677 252.178 163.37 252.688 163.336 252.723 163.336 252.723 163.336 252.756 163.268 252.858 163.2 252.96 163.132 253.061 163.065 253.163 162.996 253.265 162.929 253.367 162.758 253.639 162.589 253.945 162.418 254.217 161.806 255.271 161.229 256.325 160.753 257.413 160.651 257.651 160.447 257.991 160.344 258.331 160.31 258.433 160.31 258.534 160.277 258.671L160.277 258.705C159.427 265.777 165.309 272.339 170.885 275.671 177.175 279.445 184.825 280.941 192.101 281.009 198.085 281.076 203.865 280.567 209.441 278.119 213.044 276.555 216.377 274.345 219.063 271.489 222.599 267.75 225.659 262.717 227.325 257.855 230.35 249.153 223.244 242.999 216.036 239.905ZM222.87 263.602C222.156 264.316 221.443 264.997 220.626 265.642 217.6 267.954 214.131 269.654 210.493 270.742 207.943 271.49 205.393 271.864 202.809 272.034 208.691 270.673 214.335 267.92 217.871 262.956 219.129 261.188 220.557 259.148 221.543 257.006 222.257 258.264 222.733 259.658 222.903 261.189 223.005 262.004 223.005 262.821 222.87 263.602Z" fill="#DB3E1B" transform="matrix(1 0 0 1.00087 53 199.472)"/><path d="M160.378 258.298C160.344 258.4 160.344 258.502 160.31 258.638L160.31 258.672C160.31 258.536 160.31 258.434 160.378 258.298Z" fill="#DB3E1B" transform="matrix(1 0 0 1.00087 53 199.472)"/><path d="M162.962 253.3C162.792 253.572 162.622 253.878 162.452 254.15 161.84 255.204 161.262 256.258 160.786 257.346 160.684 257.584 160.481 257.924 160.378 258.264 160.717 256.598 162.044 254.762 162.962 253.3Z" fill="#DB3E1B" transform="matrix(1 0 0 1.00087 53 199.472)"/><path d="M165.308 250.036C165.036 250.24 164.356 251.158 164.356 251.158 164.016 251.634 163.677 252.11 163.37 252.62 163.812 251.906 164.288 251.056 164.866 250.479 164.865 250.478 165.138 250.138 165.308 250.036Z" fill="#DB3E1B" transform="matrix(1 0 0 1.00087 53 199.472)"/><path d="M165.444 250.036C165.41 250.002 165.376 250.002 165.308 250.036 165.375 250.002 165.41 249.968 165.41 250.002L165.444 250.036Z" fill="#DB3E1B" transform="matrix(1 0 0 1.00087 53 199.472)"/><path d="M72.182 222.666C72.1145 222.7 72.0802 222.7 72.0116 222.734 65.2116 225.011 57.5958 225.42 50.591 224.128 43.4856 222.836 37.1616 219.64 31.3133 215.492 28.117 212.976 25.6687 209.27 25.6687 205.088 26.7567 204.442 27.9465 203.933 29.1704 203.49 34.7464 201.45 40.8324 201.178 46.6807 200.498 47.0548 200.464 47.5982 199.581 47.7344 199.376 48.4482 198.424 49.0603 197.371 49.6723 196.316 49.8428 195.976 52.1548 191.76 51.7807 191.658 43.7567 189.244 34.7133 187.849 26.791 191.42 23.1187 193.052 20.705 196.009 18.5633 199.308 16.2169 202.911 13.9393 206.923 13.191 211.208 10.3687 227.323 27.8447 237.116 41.479 238.68 46.7827 239.292 52.2236 238.747 57.2893 237.014 60.8253 235.79 64.6338 234.023 67.3533 231.404 68.2708 230.52 68.9858 229.399 69.631 228.276 69.8347 227.902 69.9708 227.597 70.1412 227.324 70.2774 227.052 70.4467 226.814 70.5828 226.542 70.5828 226.508 70.6172 226.474 70.6172 226.474 70.6847 226.373 70.719 226.271 70.7876 226.169 70.8219 226.067 70.8894 225.965 70.958 225.897 70.958 225.862 70.9923 225.829 71.0256 225.795 71.2978 225.25 71.5701 224.707 71.808 224.162 71.808 223.992 72.1821 222.904 72.1821 222.666L72.1821 222.666ZM17.068 203.626C16.6264 203.933 17.4089 202.912 17.068 203.626ZM20.5023 213.725C20.5023 214.269 20.5698 214.847 20.6384 215.357 18.768 212.195 17.783 208.557 18.0541 204.749 18.0884 204.001 18.1902 203.219 18.3596 202.471 19.2096 201.723 20.0939 201.076 21.1132 200.499 23.2548 199.343 25.5669 198.628 27.9807 198.254 27.3011 198.934 26.6891 199.649 26.1102 200.464 24.2398 203.049 22.5065 205.973 21.3499 208.964 20.7722 210.461 20.5674 211.923 20.4999 213.52 20.4678 213.656 20.5021 213.69 20.5021 213.725Z" fill="#DB3E1B" transform="matrix(1 0 0 1.00087 53 199.472)"/><path d="M17.0674 203.626C16.6258 203.933 17.4083 202.912 17.0674 203.626Z" fill="#DB3E1B" transform="matrix(1 0 0 1.00087 53 199.472)"/><path d="M69.598 228.276C69.0203 229.431 68.2035 230.928 67.3203 231.404 68.2035 230.521 68.9516 229.398 69.598 228.276Z" fill="#DB3E1B" transform="matrix(1 0 0 1.00087 53 199.472)"/><path d="M70.516 226.542C70.2105 227.12 69.9039 227.697 69.5642 228.276 69.7678 227.902 69.9039 227.597 70.0744 227.324 70.2448 227.087 70.3799 226.814 70.516 226.542Z" fill="#DB3E1B" transform="matrix(1 0 0 1.00087 53 199.472)"/><path d="M70.89 225.862C70.7882 226.066 70.6864 226.27 70.5502 226.474 70.6177 226.372 70.6521 226.27 70.7207 226.169 70.7882 226.066 70.8557 225.964 70.89 225.862Z" fill="#DB3E1B" transform="matrix(1 0 0 1.00087 53 199.472)"/><path d="M72.182 222.666C72.1145 222.7 72.0802 222.7 72.0116 222.734 72.1134 222.633 72.1477 222.633 72.182 222.666Z" fill="#DB3E1B" transform="matrix(1 0 0 1.00087 53 199.472)"/><path d="M72.216 222.7C72.1828 222.7 72.1828 222.666 72.216 222.7L72.216 222.666 72.216 222.7Z" fill="#DB3E1B" transform="matrix(1 0 0 1.00087 53 199.472)"/><path d="M72.08 223.38C71.842 224.196 71.4005 224.978 70.9577 225.76 71.23 225.215 71.5023 224.672 71.7402 224.127 71.8077 223.991 72.1486 222.903 72.1818 222.699 72.2505 222.871 72.08 223.312 72.08 223.38Z" fill="#DB3E1B" transform="matrix(1 0 0 1.00087 53 199.472)"/></g></svg>